<svg width="20" height="20" viewBox="0 0 20 20" fill="none" xmlns="http://www.w3.org/2000/svg">
<g clip-path="url(#clip0_249_1135)">
<path d="M13.9964 14.8637C14.4847 15.3521 14.4847 16.1437 13.9964 16.6312C13.508 17.1196 12.7164 17.1196 12.2289 16.6312L7.38219 11.7846L6.20385 12.9629L10.698 17.4571C11.1864 17.9454 11.1864 18.7371 10.698 19.2246C10.2097 19.7129 9.41802 19.7129 8.93052 19.2246L5.03635 15.3304C2.57219 12.9262 0.0546875 9.72289 0.0546875 6.67122C0.0546875 3.45456 2.48552 0.837891 5.47135 0.837891C6.94885 0.837891 8.08052 1.38956 8.94219 2.00206L5.90969 5.00872C5.35802 5.55956 5.05469 6.29289 5.05469 7.07206C5.05469 7.85122 5.35802 8.58372 5.90802 9.13372C6.45885 9.68539 7.19135 9.98872 7.97135 9.98872C8.32635 9.98872 8.66885 9.91789 8.99219 9.79789L13.9964 14.8637ZM12.073 7.10872L10.3297 8.84039L15.4214 13.8554C15.9097 14.3437 16.7014 14.3437 17.1889 13.8554C17.9355 13.1087 17.2964 12.2821 17.2964 12.2821L12.0722 7.10872H12.073ZM14.603 0.886224C13.2414 0.894557 11.948 1.48622 10.9514 2.41456L7.08719 6.25289C6.59885 6.74122 6.59885 7.53289 7.08719 8.02039C7.57552 8.50872 8.36719 8.50872 8.85469 8.02039L12.1097 4.78706L18.5547 11.1854C19.5472 9.58372 20.0539 8.08372 20.0539 6.71956C20.0539 3.50289 17.5889 0.886224 14.6022 0.886224H14.603Z" fill="white"/>
</g>
<defs>
<clipPath id="clip0_249_1135">
<rect width="20" height="20" fill="white"/>
</clipPath>
</defs>
</svg>
