<svg width="20" height="20" viewBox="0 0 20 20" fill="none" xmlns="http://www.w3.org/2000/svg">
<g clip-path="url(#clip0_249_1144)">
<path d="M7.49502 5.32408C7.51335 5.44908 7.47752 5.57575 7.39669 5.67325C7.19085 5.91992 6.80002 5.87408 6.65669 5.58658L5.70502 3.65325L4.56919 4.85075C4.32835 5.09158 3.92335 5.03158 3.76252 4.73158L2.25252 1.71158C2.13002 1.46491 2.17919 1.16825 2.37335 0.973248L3.19002 0.157415C3.45085 -0.103418 3.89169 -0.0292517 4.05169 0.303248L4.85669 2.16992L6.04669 0.979915C6.32752 0.699082 6.80835 0.844082 6.88752 1.23325L7.49502 5.32408ZM12.5042 5.32408C12.4859 5.44908 12.5217 5.57575 12.6025 5.67325C12.8084 5.91992 13.1992 5.87408 13.3425 5.58658L14.2942 3.65325L15.43 4.85075C15.6709 5.09158 16.0759 5.03158 16.2367 4.73158L17.7467 1.71158C17.8692 1.46491 17.82 1.16825 17.6259 0.973248L16.81 0.157415C16.5492 -0.103418 16.1084 -0.0292517 15.9484 0.303248L15.1434 2.16992L13.9534 0.979915C13.6725 0.699082 13.1917 0.844082 13.1125 1.23325L12.5042 5.32408ZM19.0584 14.2832C18.6209 16.1999 16.8209 17.4991 14.8542 17.4991H10.8325V14.9991C10.8325 14.3966 10.7375 13.8041 10.5575 13.2399C10.3917 12.7207 9.75335 12.5241 9.29919 12.8266C8.99169 13.0316 8.85252 13.4141 8.96669 13.7657C9.09502 14.1616 9.16585 14.5749 9.16585 14.9991V19.1658C9.16585 19.6257 8.79252 19.9991 8.33252 19.9991C7.87252 19.9991 7.49919 19.6257 7.49919 19.1658V18.3082C6.82669 18.8149 6.00335 19.1324 5.10335 19.1549C2.74002 19.0982 0.83252 17.1666 0.83252 14.7907C0.83252 13.3791 1.52752 12.0466 2.67002 11.2307C3.16002 9.37325 4.70585 7.94908 6.60335 7.60158C7.37835 6.50158 8.64419 5.83325 10 5.83325C11.3559 5.83325 12.6159 6.50325 13.3925 7.60658C14.5017 7.82408 15.4792 8.43408 16.1559 9.33075C18.215 9.92408 19.5692 12.0457 19.0584 14.2832ZM15.8334 13.3324C15.8334 12.8716 15.46 12.4991 15 12.4991C14.54 12.4991 14.1667 12.1257 14.1667 11.6657C14.1667 11.2057 13.7934 10.8324 13.3334 10.8324C12.8734 10.8324 12.5 11.2049 12.5 11.6657C12.5 13.0441 13.6217 14.1657 15 14.1657C15.46 14.1657 15.8334 13.7932 15.8334 13.3324Z" fill="white"/>
</g>
<defs>
<clipPath id="clip0_249_1144">
<rect width="20" height="20" fill="white"/>
</clipPath>
</defs>
</svg>
