<svg width="20" height="20" viewBox="0 0 20 20" fill="none" xmlns="http://www.w3.org/2000/svg">
<g clip-path="url(#clip0_249_1153)">
<path d="M19.39 8.52608L16.265 5.40108L14.5 7.16608L16.1166 8.78191H11.25V3.92191L12.8333 5.50525L14.6016 3.73691L11.4733 0.609412C11.2798 0.415898 11.0502 0.262392 10.7974 0.15766C10.5446 0.0529287 10.2736 -0.000976562 9.99997 -0.000976562C9.72634 -0.000976563 9.45539 0.0529287 9.20259 0.15766C8.94979 0.262392 8.7201 0.415898 8.52664 0.609412L5.40164 3.73441L7.16664 5.49941L8.74997 3.91608V8.77941H3.92247L5.50581 7.19608L3.73497 5.43691L0.610805 8.56108C0.417167 8.75456 0.263555 8.9843 0.15875 9.23717C0.0539443 9.49005 0 9.7611 0 10.0348C0 10.3086 0.0539443 10.5796 0.15875 10.8325C0.263555 11.0854 0.417167 11.3151 0.610805 11.5086L3.73581 14.6336L5.49997 12.8652L3.91664 11.2819H8.74997V16.0736L7.16664 14.4994L5.40164 16.2644L8.52664 19.3894C8.7201 19.5829 8.94979 19.7364 9.20259 19.8412C9.45539 19.9459 9.72634 19.9998 9.99997 19.9998C10.2736 19.9998 10.5446 19.9459 10.7974 19.8412C11.0502 19.7364 11.2798 19.5829 11.4733 19.3894L14.5983 16.2644L12.8333 14.4994L11.25 16.0827V11.2911H16.0416L14.5 12.8327L16.2683 14.6011L19.3933 11.4761C19.5871 11.2823 19.7408 11.0523 19.8455 10.799C19.9503 10.5458 20.004 10.2744 20.0037 10.0004C20.0034 9.72636 19.949 9.45508 19.8437 9.20209C19.7384 8.94911 19.5842 8.71938 19.39 8.52608Z" fill="white"/>
</g>
<defs>
<clipPath id="clip0_249_1153">
<rect width="20" height="20" fill="white"/>
</clipPath>
</defs>
</svg>
